<svg width="18" height="21" viewBox="0 0 18 21" fill="none" xmlns="http://www.w3.org/2000/svg">
<path d="M12.9844 15.5156V9.51562C12.9844 8.23438 12.625 7.17188 11.9062 6.32812C11.1875 5.45312 10.2188 5.01562 9 5.01562C7.78125 5.01562 6.8125 5.45312 6.09375 6.32812C5.375 7.17188 5.01562 8.23438 5.01562 9.51562V15.5156H12.9844ZM15 14.4844L17.0156 16.5V17.4844H0.984375V16.5L3 14.4844V9.51562C3 7.95312 3.39062 6.59375 4.17188 5.4375C4.98438 4.28125 6.09375 3.53125 7.5 3.1875V2.48438C7.5 2.07812 7.64062 1.73438 7.92188 1.45312C8.20312 1.14062 8.5625 0.984375 9 0.984375C9.4375 0.984375 9.79688 1.14062 10.0781 1.45312C10.3594 1.73438 10.5 2.07812 10.5 2.48438V3.1875C11.9062 3.53125 13 4.28125 13.7812 5.4375C14.5938 6.59375 15 7.95312 15 9.51562V14.4844ZM10.4062 19.9219C10 20.2969 9.53125 20.4844 9 20.4844C8.46875 20.4844 8 20.2969 7.59375 19.9219C7.1875 19.5156 6.98438 19.0469 6.98438 18.5156H11.0156C11.0156 19.0469 10.8125 19.5156 10.4062 19.9219Z" fill="#908E8E"/>
</svg>
