<svg width="18" height="18" viewBox="0 0 18 18" fill="none" xmlns="http://www.w3.org/2000/svg">
<path d="M11.2852 4.39453C11.4492 4.23047 11.5312 4.01953 11.5312 3.76172C11.5312 3.50391 11.4492 3.28125 11.2852 3.09375L10.0898 1.89844L10.8984 1.08984L12.0938 2.28516C12.4922 2.73047 12.6914 3.22266 12.6914 3.76172C12.6914 4.27734 12.4922 4.75781 12.0938 5.20312L9.38672 7.91016L8.61328 7.10156L11.2852 4.39453ZM12.7969 8.89453C13.2422 8.49609 13.7227 8.29688 14.2383 8.29688C14.7773 8.29688 15.2695 8.49609 15.7148 8.89453L16.9102 10.125L16.1367 10.8984L14.9062 9.70312C14.7188 9.51562 14.4961 9.42188 14.2383 9.42188C14.0039 9.42188 13.793 9.51562 13.6055 9.70312L12.4102 10.8984L11.6016 10.0898L12.7969 8.89453ZM7.55859 5.16797C7.72266 5.00391 7.80469 4.78125 7.80469 4.5C7.80469 4.21875 7.72266 3.99609 7.55859 3.83203L7.10156 3.41016L7.91016 2.60156L8.33203 3.02344C8.73047 3.46875 8.92969 3.96094 8.92969 4.5C8.92969 5.01563 8.73047 5.49609 8.33203 5.94141L7.91016 6.39844L7.10156 5.58984L7.55859 5.16797ZM10.8984 9.38672L10.0898 8.61328L14.3086 4.39453C14.7539 3.99609 15.2344 3.79688 15.75 3.79688C16.2891 3.79688 16.7812 3.99609 17.2266 4.39453L17.6484 4.85156L16.875 5.66016L16.418 5.20312C16.2305 5.01563 16.0078 4.92188 15.75 4.92188C15.4922 4.92188 15.2695 5.01563 15.082 5.20312L10.8984 9.38672ZM1.51172 16.4883L5.23828 6.01172L11.9883 12.7617L1.51172 16.4883Z" fill="#908E8E"/>
</svg>
