<svg width="142" height="133" viewBox="0 0 142 133" fill="none" xmlns="http://www.w3.org/2000/svg">
<path d="M104.679 100.662L33.3448 119.016C28.3065 120.307 23.1738 117.278 21.871 112.247L0.297608 28.5399C-0.993734 23.5058 2.03688 18.3773 7.0722 17.0757L73.4373 0L90.4236 7.59794L111.454 89.1977C112.745 94.2318 109.715 99.3603 104.679 100.662Z" fill="#F2F2F2"/>
<path d="M7.57518 20.1542C3.97649 21.0786 1.81054 24.7208 2.73345 28.2959L24.3846 111.775C25.3157 115.348 28.984 117.498 32.5848 116.582L104.176 98.2776C107.775 97.3532 109.941 93.711 109.018 90.1359L88.2391 10.02L73.2574 3.36096L7.57518 20.1542Z" fill="white"/>
<path d="M90.6011 7.93432L79.761 10.8216C78.113 11.2605 76.4331 10.2346 76.0087 8.5301L73.947 0.248856C73.9286 0.174875 73.9527 0.0965168 74.0091 0.0471587C74.0654 -0.0021994 74.1441 -0.0138601 74.2117 0.0171438L90.6312 7.55939C90.7061 7.5938 90.7518 7.67346 90.745 7.75793C90.7382 7.84241 90.6805 7.91318 90.6011 7.93432Z" fill="#F2F2F2"/>
<path d="M84.5094 79.6203L51.5626 88.1741C51.0119 88.3171 50.4274 88.153 50.0293 87.7437C49.6311 87.3344 49.4798 86.742 49.6323 86.1897C49.7849 85.6374 50.2181 85.2091 50.7687 85.0661L83.7155 76.5123C84.2662 76.3693 84.8507 76.5334 85.2489 76.9427C85.647 77.3521 85.7983 77.9444 85.6458 78.4967C85.4933 79.049 85.0601 79.4774 84.5094 79.6203Z" fill="#CCCCCC"/>
<path d="M92.0859 82.9882L53.2211 93.2151C52.3793 93.4366 51.5213 92.9189 51.3045 92.0587C51.0877 91.1986 51.5944 90.3217 52.4361 90.1002L91.3009 79.8733C92.1423 79.6528 92.9995 80.1705 93.2161 81.0301C93.4327 81.8897 92.9269 82.7661 92.0859 82.9882H92.0859Z" fill="#CCCCCC"/>
<circle cx="39.0709" cy="92.8462" r="5.46154" fill="#E6E6E6"/>
<path d="M81.2026 65.1305L37.8617 76.3073C35.2537 76.9767 32.5969 75.4049 31.9229 72.7937L22.8402 37.4462C22.172 34.8334 23.741 32.1719 26.3475 31.4966L69.6884 20.3199C72.2964 19.6505 74.9531 21.2223 75.6272 23.8335L84.7099 59.181C85.3781 61.7937 83.8091 64.4552 81.2026 65.1305Z" fill="white"/>
<path fill-rule="evenodd" clip-rule="evenodd" d="M37.8617 76.3073L81.2026 65.1305C83.8091 64.4552 85.3781 61.7937 84.7099 59.181L75.6272 23.8335C74.9531 21.2223 72.2964 19.6505 69.6884 20.3199L26.3475 31.4966C23.741 32.1719 22.172 34.8334 22.8402 37.4462L31.9229 72.7937C32.5969 75.4049 35.2537 76.9767 37.8617 76.3073ZM23.3959 37.3029C22.8063 34.9975 24.1907 32.6491 26.4905 32.0533L69.8314 20.8765C72.1326 20.2859 74.4768 21.6728 75.0715 23.9767L84.1542 59.3243C84.7438 61.6296 83.3594 63.978 81.0596 64.5739L37.7187 75.7506C35.4175 76.3413 33.0733 74.9544 32.4785 72.6504L23.3959 37.3029Z" fill="#E6E6E6"/>
<path d="M67.4902 31.876L45.5209 37.7802C45.1224 37.8964 44.7058 37.6705 44.5676 37.2633C44.505 37.0561 44.5267 36.8311 44.6277 36.6411C44.7286 36.4512 44.9 36.3129 45.1015 36.2587L67.4649 30.2485C68.3682 30.7264 68.1305 31.7039 67.4899 31.876L67.4902 31.876Z" fill="#F2F2F2"/>
<path d="M68.3305 36.0771L46.3612 41.9814C45.9627 42.0976 45.5461 41.8716 45.4079 41.4644C45.3453 41.2572 45.367 41.0323 45.468 40.8423C45.569 40.6523 45.7403 40.5141 45.9418 40.4599L68.3052 34.4497C69.2086 34.9276 68.9709 35.9051 68.3303 36.0772L68.3305 36.0771Z" fill="#F2F2F2"/>
<path d="M42.2343 45.3653L35.7631 47.0273C35.3231 47.1398 34.8747 46.8757 34.7611 46.4368L32.7953 38.8178C32.6825 38.3787 32.9472 37.9314 33.3871 37.818L39.8583 36.156C40.2983 36.0436 40.7465 36.3077 40.8604 36.7464L42.8261 44.3655C42.9389 44.8046 42.6742 45.2519 42.2343 45.3653V45.3653Z" fill="#E6E6E6"/>
<path d="M70.021 44.3902L37.1006 52.9061C36.7093 53.0159 36.3003 52.8024 36.1646 52.4176C36.1031 52.2218 36.1245 52.0092 36.2236 51.8296C36.3227 51.6501 36.4909 51.5194 36.6888 51.4682L69.9964 42.8521C70.8834 43.3037 70.65 44.2274 70.021 44.3902L70.021 44.3902Z" fill="#F2F2F2"/>
<path d="M70.8613 47.7511L37.941 56.2671C37.5497 56.3769 37.1406 56.1634 37.005 55.7785C36.9435 55.5827 36.9648 55.3701 37.0639 55.1906C37.1631 55.011 37.3313 54.8804 37.5291 54.8292L70.8367 46.213C71.7237 46.6646 71.4903 47.5884 70.8613 47.7511L70.8613 47.7511Z" fill="#F2F2F2"/>
<path d="M72.5417 51.9523L39.6214 60.4683C39.2301 60.5781 38.821 60.3645 38.6854 59.9797C38.6239 59.7839 38.6452 59.5713 38.7443 59.3918C38.8435 59.2122 39.0117 59.0815 39.2096 59.0303L72.5171 50.4142C73.4041 50.8658 73.1707 51.7896 72.5417 51.9523H72.5417Z" fill="#F2F2F2"/>
<path d="M73.3821 55.3132L40.4617 63.8292C40.0704 63.939 39.6614 63.7255 39.5257 63.3407C39.4642 63.1448 39.4855 62.9323 39.5847 62.7527C39.6838 62.5732 39.852 62.4425 40.0499 62.3913L73.3575 53.7751C74.2444 54.2268 74.011 55.1505 73.3821 55.3132L73.3821 55.3132Z" fill="#F2F2F2"/>
<path d="M74.2222 59.5144L41.3018 68.0304C40.9105 68.1402 40.5014 67.9267 40.3658 67.5418C40.3043 67.346 40.3256 67.1334 40.4248 66.9539C40.5239 66.7743 40.6921 66.6437 40.89 66.5925L74.1976 57.9763C75.0845 58.428 74.8511 59.3517 74.2222 59.5144H74.2222Z" fill="#F2F2F2"/>
<path d="M39.2166 94.927C39.0952 94.9605 38.9669 94.9511 38.851 94.9001L38.8438 94.8969L37.3256 94.2109C37.1339 94.1244 37.0002 93.9354 36.9748 93.7152C36.9494 93.495 37.0364 93.2771 37.2028 93.1437C37.3691 93.0104 37.5897 92.982 37.7811 93.0691L38.7649 93.5151L40.054 90.2827C40.1144 90.1314 40.2287 90.0118 40.3718 89.9503C40.5149 89.8888 40.6751 89.8904 40.8171 89.9547L40.8173 89.9548L40.8095 89.9759L40.8176 89.9547C41.113 90.0891 41.2507 90.453 41.1252 90.7682L39.6086 94.5688C39.5373 94.7464 39.3925 94.8785 39.2169 94.9261L39.2166 94.927Z" fill="white"/>
<path d="M132.586 132.757H58.9877C53.7911 132.752 49.5798 128.55 49.574 123.364V37.1207C49.5798 31.9356 53.7911 27.7336 58.9877 27.7278H127.459L142 39.2921V123.364C141.994 128.55 137.783 132.752 132.586 132.757Z" fill="#E6E6E6"/>
<path d="M58.8276 30.2485C55.1109 30.2527 52.0989 33.256 52.0947 36.962V123.523C52.0989 127.229 55.1109 130.233 58.8276 130.237H132.746C136.463 130.233 139.475 127.229 139.479 123.523V40.4489L126.645 30.2485H58.8276Z" fill="white"/>
<path d="M117.732 55.4557H83.9249C83.0514 55.4557 82.3433 54.7033 82.3433 53.7752C82.3433 52.8471 83.0514 52.0947 83.9249 52.0947H117.732C118.606 52.0947 119.314 52.8471 119.314 53.7752C119.314 54.7033 118.606 55.4557 117.732 55.4557Z" fill="#EF8354"/>
<path d="M124.475 60.4971H84.7395C83.8797 60.4958 83.1833 59.7438 83.1833 58.8166C83.1833 57.8894 83.8797 57.1374 84.7395 57.1361H124.475C125.032 57.1353 125.547 57.4554 125.826 57.9757C126.105 58.496 126.105 59.1372 125.826 59.6575C125.547 60.1777 125.032 60.4979 124.475 60.4971Z" fill="#EF8354"/>
<path d="M117.732 75.6213H83.9248C83.0514 75.6213 82.3433 76.3737 82.3433 77.3018C82.3433 78.2299 83.0514 78.9823 83.9248 78.9823H117.732C118.606 78.9823 119.314 78.2299 119.314 77.3018C119.314 76.3737 118.606 75.6213 117.732 75.6213Z" fill="#CCCCCC"/>
<path d="M124.477 80.6627H84.7415C83.881 80.6627 83.1833 81.4151 83.1833 82.3432C83.1833 83.2713 83.881 84.0237 84.7415 84.0237H124.477C125.338 84.0237 126.035 83.2713 126.035 82.3432C126.035 81.4151 125.338 80.6627 124.477 80.6627Z" fill="#CCCCCC"/>
<path d="M117.732 102.509H83.9249C83.0514 102.509 82.3433 101.757 82.3433 100.828C82.3433 99.9003 83.0514 99.1479 83.9249 99.1479H117.732C118.606 99.1479 119.314 99.9003 119.314 100.828C119.314 101.757 118.606 102.509 117.732 102.509Z" fill="#CCCCCC"/>
<path d="M124.475 108.39H84.7395C83.8797 108.389 83.1833 107.637 83.1833 106.71C83.1833 105.783 83.8797 105.031 84.7395 105.03H124.475C125.032 105.029 125.547 105.349 125.826 105.869C126.105 106.389 126.105 107.031 125.826 107.551C125.547 108.071 125.032 108.391 124.475 108.39Z" fill="#CCCCCC"/>
<circle cx="70.1598" cy="55.8757" r="5.46154" fill="#EF8354"/>
<path d="M70.0329 57.9763C69.9022 57.9765 69.7749 57.9363 69.6703 57.8618L69.6638 57.8572L68.2978 56.8641C68.1252 56.7389 68.0361 56.5355 68.0642 56.3308C68.0923 56.1262 68.2333 55.9514 68.434 55.8724C68.6346 55.7935 68.8644 55.8225 69.0365 55.9484L69.9212 56.5932L72.0119 54.001C72.1098 53.8796 72.2545 53.8001 72.414 53.7801C72.5736 53.7601 72.7349 53.8011 72.8626 53.8942L72.8628 53.8943L72.8498 53.9114L72.8632 53.8943C73.1288 54.0883 73.179 54.4501 72.9754 54.703L70.5163 57.7507C70.401 57.893 70.2225 57.9762 70.0334 57.9756L70.0329 57.9763Z" fill="white"/>
<path d="M76.4617 80.2421C76.4622 81.6903 75.8871 83.0794 74.863 84.1037C73.8388 85.1281 72.4495 85.7037 71.0007 85.7038C70.9538 85.7048 70.9068 85.7029 70.8601 85.6982C67.8628 85.6214 65.4879 83.1434 65.5394 80.1467C65.5909 77.1499 68.0497 74.755 71.0479 74.7812C74.046 74.8074 76.4625 77.2449 76.4617 80.2421Z" fill="#CCCCCC"/>
<circle cx="70.1598" cy="103.769" r="5.46154" fill="#CCCCCC"/>
<path d="M141.799 39.4911H130.097C128.318 39.4911 126.876 38.0851 126.876 36.3507V27.9241C126.876 27.8488 126.92 27.7801 126.989 27.7474C127.059 27.7146 127.142 27.7235 127.202 27.7702L141.924 39.141C141.991 39.1928 142.017 39.2805 141.989 39.3593C141.961 39.4382 141.884 39.4911 141.799 39.4911Z" fill="#CCCCCC"/>
<path d="M76.4616 80.2028C76.4622 81.6614 75.863 83.0605 74.7958 84.0922C73.7286 85.1239 72.2809 85.7036 70.7712 85.7038C70.7223 85.7048 70.6734 85.7029 70.6247 85.6982C69.1326 82.1022 69.5447 78.0296 71.7294 74.781C74.4628 75.2337 76.4611 77.5232 76.4616 80.2028Z" fill="#EF8354"/>
<path d="M83.1833 77.3033C83.1849 76.3751 83.8848 75.623 84.7487 75.6213H93.079C93.5656 76.6847 93.9114 77.816 94.1064 78.9823H84.7487C83.8854 78.9821 83.1851 78.231 83.1833 77.3033H83.1833Z" fill="#EF8354"/>
<path d="M94.1064 80.6627C94.107 81.7979 93.9697 82.9281 93.6981 84.0237H84.7202C83.8714 84.0237 83.1833 83.2713 83.1833 82.3432C83.1833 81.4151 83.8714 80.6627 84.7202 80.6627H94.1064Z" fill="#EF8354"/>
<path d="M114.86 100.829C114.365 101.655 113.306 101.916 112.494 101.412L92.4107 88.9501C91.8857 88.6244 91.5714 88.0384 91.5862 87.413C91.601 86.7876 91.9427 86.2177 92.4826 85.918C93.0224 85.6184 93.6784 85.6345 94.2034 85.9603L114.287 98.4223C115.099 98.9259 115.355 100.003 114.86 100.829Z" fill="#3F3D56"/>
<path fill-rule="evenodd" clip-rule="evenodd" d="M80.6249 94.7801C86.1657 95.6458 91.6825 93.089 94.6028 88.3019C98.5812 81.7639 96.5158 73.2396 89.9859 69.247C85.1981 66.3271 79.1227 66.5783 74.5925 69.8836C70.0623 73.1889 67.9695 78.8972 69.2899 84.3469C70.6104 89.7966 75.084 93.9143 80.6249 94.7801ZM77.3504 89.9594C72.4473 86.9691 70.8969 80.5707 73.8877 75.6682C76.8825 70.7714 83.2766 69.2225 88.1808 72.2059C93.0839 75.1963 94.6343 81.5946 91.6435 86.4971C88.6528 91.3996 82.2535 92.9497 77.3504 89.9594Z" fill="#3F3D56"/>
</svg>
