<svg width="18" height="18" viewBox="0 0 18 18" fill="none" xmlns="http://www.w3.org/2000/svg">
<path d="M4.74609 13.2539C5.94141 14.4258 7.35938 15.0117 9 15.0117C10.6406 15.0117 12.0469 14.4258 13.2188 13.2539C14.4141 12.0586 15.0117 10.6406 15.0117 9C15.0117 7.35937 14.4141 5.95312 13.2188 4.78125C12.0469 3.58594 10.6406 2.98828 9 2.98828C7.35938 2.98828 5.94141 3.58594 4.74609 4.78125C3.57422 5.95312 2.98828 7.35937 2.98828 9C2.98828 10.6406 3.57422 12.0586 4.74609 13.2539ZM3.69141 3.72656C5.16797 2.25 6.9375 1.51172 9 1.51172C11.0625 1.51172 12.8203 2.25 14.2734 3.72656C15.75 5.17969 16.4883 6.9375 16.4883 9C16.4883 11.0625 15.75 12.832 14.2734 14.3086C12.8203 15.7617 11.0625 16.4883 9 16.4883C6.9375 16.4883 5.16797 15.7617 3.69141 14.3086C2.23828 12.832 1.51172 11.0625 1.51172 9C1.51172 6.9375 2.23828 5.17969 3.69141 3.72656ZM8.26172 5.23828H9.73828V9.73828H8.26172V5.23828ZM8.26172 11.25H9.73828V12.7617H8.26172V11.25Z" fill="#908E8E"/>
</svg>
