<svg width="160" height="21" viewBox="0 0 160 21" fill="none" xmlns="http://www.w3.org/2000/svg">
<path d="M26.3118 16H24.343L27.9276 5.81818H30.2045L33.794 16H31.8253L29.1058 7.90625H29.0263L26.3118 16ZM26.3764 12.0078H31.7457V13.4893H26.3764V12.0078ZM38.2903 8.36364V9.75568H33.9004V8.36364H38.2903ZM34.9842 6.53409H36.7839V13.7031C36.7839 13.9451 36.8203 14.1307 36.8933 14.2599C36.9695 14.3859 37.0689 14.4721 37.1915 14.5185C37.3142 14.5649 37.4501 14.5881 37.5992 14.5881C37.7119 14.5881 37.8147 14.5798 37.9075 14.5632C38.0036 14.5466 38.0765 14.5317 38.1262 14.5185L38.4295 15.9254C38.3334 15.9586 38.1958 15.995 38.0168 16.0348C37.8412 16.0746 37.6257 16.0978 37.3705 16.1044C36.9198 16.1177 36.5138 16.0497 36.1525 15.9006C35.7912 15.7481 35.5045 15.5128 35.2924 15.1946C35.0836 14.8764 34.9808 14.4787 34.9842 14.0014V6.53409ZM43.5086 8.36364V9.75568H39.1187V8.36364H43.5086ZM40.2025 6.53409H42.0022V13.7031C42.0022 13.9451 42.0387 14.1307 42.1116 14.2599C42.1878 14.3859 42.2873 14.4721 42.4099 14.5185C42.5325 14.5649 42.6684 14.5881 42.8176 14.5881C42.9303 14.5881 43.033 14.5798 43.1258 14.5632C43.2219 14.5466 43.2949 14.5317 43.3446 14.5185L43.6478 15.9254C43.5517 15.9586 43.4142 15.995 43.2352 16.0348C43.0595 16.0746 42.8441 16.0978 42.5889 16.1044C42.1381 16.1177 41.7321 16.0497 41.3708 15.9006C41.0096 15.7481 40.7229 15.5128 40.5108 15.1946C40.302 14.8764 40.1992 14.4787 40.2025 14.0014V6.53409ZM47.1112 16.1541C46.6273 16.1541 46.1915 16.0679 45.8037 15.8956C45.4192 15.7199 45.1143 15.4614 44.8889 15.12C44.6669 14.7786 44.5558 14.3577 44.5558 13.8572C44.5558 13.4264 44.6354 13.0701 44.7945 12.7884C44.9536 12.5066 45.1706 12.2812 45.4457 12.1122C45.7208 11.9432 46.0307 11.8156 46.3754 11.7294C46.7234 11.6399 47.0831 11.5753 47.4543 11.5355C47.9017 11.4891 48.2646 11.4477 48.543 11.4112C48.8214 11.3714 49.0236 11.3118 49.1496 11.2322C49.2788 11.1494 49.3435 11.0218 49.3435 10.8494V10.8196C49.3435 10.4451 49.2324 10.1551 49.0104 9.94957C48.7883 9.74408 48.4685 9.64134 48.0509 9.64134C47.61 9.64134 47.2604 9.73745 47.0018 9.92969C46.7466 10.1219 46.5743 10.349 46.4848 10.6108L44.8044 10.3722C44.937 9.90814 45.1557 9.52036 45.4607 9.20881C45.7656 8.89394 46.1384 8.65862 46.5793 8.50284C47.0201 8.34375 47.5073 8.2642 48.0409 8.2642C48.4088 8.2642 48.775 8.30729 49.1396 8.39347C49.5042 8.47964 49.8373 8.62216 50.1389 8.82102C50.4405 9.01657 50.6825 9.28338 50.8648 9.62145C51.0504 9.95952 51.1432 10.3821 51.1432 10.8892V16H49.4131V14.951H49.3534C49.244 15.1631 49.0899 15.362 48.8911 15.5476C48.6955 15.7299 48.4486 15.8774 48.1503 15.9901C47.8553 16.0994 47.5089 16.1541 47.1112 16.1541ZM47.5786 14.8317C47.9398 14.8317 48.253 14.7604 48.5182 14.6179C48.7833 14.4721 48.9872 14.2798 49.1297 14.0412C49.2755 13.8026 49.3484 13.5424 49.3484 13.2607V12.3608C49.2921 12.4072 49.196 12.4503 49.0601 12.4901C48.9275 12.5298 48.7784 12.5646 48.6126 12.5945C48.4469 12.6243 48.2829 12.6508 48.1205 12.674C47.9581 12.6972 47.8172 12.7171 47.6979 12.7337C47.4294 12.7701 47.1891 12.8298 46.977 12.9126C46.7649 12.9955 46.5975 13.1115 46.4749 13.2607C46.3522 13.4065 46.2909 13.5954 46.2909 13.8274C46.2909 14.1589 46.4119 14.4091 46.6538 14.5781C46.8958 14.7472 47.204 14.8317 47.5786 14.8317ZM56.1838 16.1491C55.4215 16.1491 54.7669 15.9818 54.22 15.647C53.6765 15.3123 53.2572 14.8499 52.9622 14.2599C52.6705 13.6667 52.5247 12.9839 52.5247 12.2116C52.5247 11.4361 52.6739 10.7517 52.9722 10.1584C53.2705 9.56179 53.6914 9.09777 54.2349 8.76633C54.7818 8.43158 55.4281 8.2642 56.1739 8.2642C56.7937 8.2642 57.3422 8.37855 57.8195 8.60724C58.3 8.83262 58.6829 9.15246 58.9679 9.56676C59.2529 9.97775 59.4153 10.4583 59.4551 11.0085H57.7349C57.6653 10.6406 57.4996 10.334 57.2378 10.0888C56.9793 9.8402 56.6329 9.71591 56.1987 9.71591C55.8308 9.71591 55.5077 9.81534 55.2293 10.0142C54.9509 10.2098 54.7338 10.4915 54.578 10.8594C54.4255 11.2273 54.3493 11.6681 54.3493 12.1818C54.3493 12.7022 54.4255 13.1496 54.578 13.5241C54.7304 13.8954 54.9442 14.1821 55.2193 14.3842C55.4977 14.5831 55.8242 14.6825 56.1987 14.6825C56.4639 14.6825 56.7009 14.6328 56.9097 14.5334C57.1218 14.4306 57.2991 14.2831 57.4416 14.0909C57.5841 13.8987 57.6819 13.665 57.7349 13.3899H59.4551C59.412 13.9302 59.2529 14.4091 58.9778 14.8267C58.7027 15.241 58.3282 15.5658 57.8543 15.8011C57.3803 16.0331 56.8235 16.1491 56.1838 16.1491ZM62.6326 11.5256V16H60.8329V5.81818H62.5929V9.66122H62.6824C62.8613 9.23035 63.1381 8.89062 63.5126 8.64205C63.8904 8.39015 64.371 8.2642 64.9544 8.2642C65.4847 8.2642 65.947 8.37524 66.3414 8.5973C66.7359 8.81937 67.0408 9.14418 67.2562 9.57173C67.475 9.99929 67.5843 10.5213 67.5843 11.1378V16H65.7846V11.4162C65.7846 10.9025 65.652 10.5031 65.3869 10.218C65.1251 9.92969 64.7572 9.78551 64.2832 9.78551C63.965 9.78551 63.68 9.85511 63.4281 9.99432C63.1795 10.1302 62.984 10.3274 62.8414 10.5859C62.7022 10.8445 62.6326 11.1577 62.6326 11.5256ZM75.5253 16.1342C74.9254 16.1342 74.3885 15.9801 73.9145 15.6719C73.4406 15.3636 73.066 14.9162 72.7909 14.3295C72.5158 13.7429 72.3783 13.0303 72.3783 12.1918C72.3783 11.3433 72.5175 10.6274 72.7959 10.044C73.0776 9.45739 73.4571 9.01491 73.9344 8.71662C74.4117 8.41501 74.9436 8.2642 75.5303 8.2642C75.9777 8.2642 76.3456 8.34044 76.634 8.4929C76.9223 8.64205 77.151 8.82268 77.3201 9.0348C77.4891 9.24361 77.62 9.44081 77.7128 9.62642H77.7874V5.81818H79.5921V16H77.8222V14.7969H77.7128C77.62 14.9825 77.4858 15.1797 77.3101 15.3885C77.1345 15.594 76.9024 15.7696 76.6141 15.9155C76.3257 16.0613 75.9628 16.1342 75.5253 16.1342ZM76.0274 14.6577C76.4086 14.6577 76.7334 14.5549 77.0019 14.3494C77.2703 14.1406 77.4742 13.8506 77.6134 13.4794C77.7526 13.1082 77.8222 12.6757 77.8222 12.1818C77.8222 11.688 77.7526 11.2588 77.6134 10.8942C77.4775 10.5296 77.2753 10.2462 77.0069 10.044C76.7417 9.84186 76.4152 9.74077 76.0274 9.74077C75.6264 9.74077 75.2917 9.84517 75.0232 10.054C74.7547 10.2628 74.5525 10.5511 74.4167 10.919C74.2808 11.2869 74.2128 11.7079 74.2128 12.1818C74.2128 12.6591 74.2808 13.085 74.4167 13.4595C74.5559 13.8307 74.7597 14.1241 75.0282 14.3395C75.2999 14.5516 75.633 14.6577 76.0274 14.6577ZM84.7408 16.1491C83.9951 16.1491 83.3488 15.9851 82.8019 15.657C82.255 15.3288 81.8308 14.8698 81.5292 14.2798C81.2309 13.6899 81.0817 13.0005 81.0817 12.2116C81.0817 11.4228 81.2309 10.7318 81.5292 10.1385C81.8308 9.54522 82.255 9.08452 82.8019 8.75639C83.3488 8.42827 83.9951 8.2642 84.7408 8.2642C85.4866 8.2642 86.1329 8.42827 86.6798 8.75639C87.2266 9.08452 87.6492 9.54522 87.9475 10.1385C88.2491 10.7318 88.3999 11.4228 88.3999 12.2116C88.3999 13.0005 88.2491 13.6899 87.9475 14.2798C87.6492 14.8698 87.2266 15.3288 86.6798 15.657C86.1329 15.9851 85.4866 16.1491 84.7408 16.1491ZM84.7508 14.7074C85.1551 14.7074 85.4932 14.5964 85.765 14.3743C86.0368 14.1489 86.2389 13.8473 86.3715 13.4695C86.5074 13.0916 86.5754 12.6707 86.5754 12.2067C86.5754 11.7393 86.5074 11.3168 86.3715 10.9389C86.2389 10.5578 86.0368 10.2545 85.765 10.0291C85.4932 9.80374 85.1551 9.69105 84.7508 9.69105C84.3365 9.69105 83.9918 9.80374 83.7167 10.0291C83.4449 10.2545 83.2411 10.5578 83.1052 10.9389C82.9726 11.3168 82.9063 11.7393 82.9063 12.2067C82.9063 12.6707 82.9726 13.0916 83.1052 13.4695C83.2411 13.8473 83.4449 14.1489 83.7167 14.3743C83.9918 14.5964 84.3365 14.7074 84.7508 14.7074ZM93.1584 16.1491C92.3961 16.1491 91.7415 15.9818 91.1946 15.647C90.6511 15.3123 90.2318 14.8499 89.9368 14.2599C89.6452 13.6667 89.4993 12.9839 89.4993 12.2116C89.4993 11.4361 89.6485 10.7517 89.9468 10.1584C90.2451 9.56179 90.666 9.09777 91.2096 8.76633C91.7564 8.43158 92.4027 8.2642 93.1485 8.2642C93.7683 8.2642 94.3168 8.37855 94.7941 8.60724C95.2747 8.83262 95.6575 9.15246 95.9425 9.56676C96.2275 9.97775 96.3899 10.4583 96.4297 11.0085H94.7096C94.6399 10.6406 94.4742 10.334 94.2124 10.0888C93.9539 9.8402 93.6075 9.71591 93.1733 9.71591C92.8054 9.71591 92.4823 9.81534 92.2039 10.0142C91.9255 10.2098 91.7084 10.4915 91.5526 10.8594C91.4001 11.2273 91.3239 11.6681 91.3239 12.1818C91.3239 12.7022 91.4001 13.1496 91.5526 13.5241C91.7051 13.8954 91.9188 14.1821 92.1939 14.3842C92.4723 14.5831 92.7988 14.6825 93.1733 14.6825C93.4385 14.6825 93.6755 14.6328 93.8843 14.5334C94.0964 14.4306 94.2737 14.2831 94.4162 14.0909C94.5587 13.8987 94.6565 13.665 94.7096 13.3899H96.4297C96.3866 13.9302 96.2275 14.4091 95.9524 14.8267C95.6774 15.241 95.3028 15.5658 94.8289 15.8011C94.3549 16.0331 93.7981 16.1491 93.1584 16.1491ZM102.675 12.7884V8.36364H104.474V16H102.729V14.6428H102.65C102.478 15.0703 102.194 15.42 101.8 15.6918C101.409 15.9635 100.926 16.0994 100.353 16.0994C99.8525 16.0994 99.41 15.9884 99.0256 15.7663C98.6444 15.541 98.3461 15.2145 98.1307 14.7869C97.9152 14.3561 97.8075 13.8357 97.8075 13.2259V8.36364H99.6072V12.9474C99.6072 13.4313 99.7398 13.8158 100.005 14.1009C100.27 14.3859 100.618 14.5284 101.049 14.5284C101.314 14.5284 101.571 14.4638 101.82 14.3345C102.068 14.2053 102.272 14.013 102.431 13.7578C102.594 13.4993 102.675 13.1761 102.675 12.7884ZM106.225 16V8.36364H107.945V9.66122H108.035C108.194 9.22372 108.457 8.88234 108.825 8.63707C109.193 8.38849 109.632 8.2642 110.143 8.2642C110.66 8.2642 111.096 8.39015 111.45 8.64205C111.808 8.89062 112.06 9.23035 112.206 9.66122H112.285C112.455 9.23698 112.74 8.89891 113.141 8.64702C113.545 8.39181 114.024 8.2642 114.577 8.2642C115.28 8.2642 115.853 8.48627 116.298 8.9304C116.742 9.37453 116.964 10.0225 116.964 10.8743V16H115.159V11.1527C115.159 10.6787 115.033 10.3324 114.781 10.1136C114.529 9.89157 114.221 9.78054 113.857 9.78054C113.422 9.78054 113.083 9.91643 112.837 10.1882C112.595 10.4567 112.474 10.8063 112.474 11.2372V16H110.709V11.0781C110.709 10.6837 110.59 10.3688 110.352 10.1335C110.116 9.8982 109.808 9.78054 109.427 9.78054C109.168 9.78054 108.933 9.84683 108.721 9.9794C108.509 10.1087 108.34 10.2926 108.214 10.5312C108.088 10.7666 108.025 11.0417 108.025 11.3565V16H106.225ZM122.07 16.1491C121.305 16.1491 120.643 15.9901 120.087 15.6719C119.533 15.3504 119.107 14.8963 118.809 14.3097C118.511 13.7197 118.361 13.0253 118.361 12.2266C118.361 11.4411 118.511 10.7517 118.809 10.1584C119.11 9.56179 119.531 9.09777 120.072 8.76633C120.612 8.43158 121.247 8.2642 121.976 8.2642C122.446 8.2642 122.891 8.34044 123.308 8.4929C123.729 8.64205 124.1 8.87405 124.422 9.18892C124.747 9.50379 125.002 9.90483 125.187 10.392C125.373 10.8759 125.466 11.4527 125.466 12.1222V12.674H119.207V11.4609H123.741C123.737 11.1162 123.663 10.8097 123.517 10.5412C123.371 10.2694 123.167 10.0556 122.905 9.89986C122.647 9.74408 122.345 9.66619 122.001 9.66619C121.633 9.66619 121.31 9.75568 121.031 9.93466C120.753 10.1103 120.536 10.3423 120.38 10.6307C120.227 10.9157 120.15 11.2289 120.146 11.5703V12.6293C120.146 13.0734 120.227 13.4545 120.39 13.7727C120.552 14.0876 120.779 14.3295 121.071 14.4986C121.363 14.6643 121.704 14.7472 122.095 14.7472C122.357 14.7472 122.594 14.7107 122.806 14.6378C123.018 14.5616 123.202 14.4505 123.358 14.3047C123.514 14.1589 123.631 13.9782 123.711 13.7628L125.391 13.9517C125.285 14.3958 125.083 14.7836 124.785 15.1151C124.49 15.4432 124.112 15.6984 123.651 15.8807C123.191 16.0597 122.664 16.1491 122.07 16.1491ZM128.688 11.5256V16H126.888V8.36364H128.609V9.66122H128.698C128.874 9.23366 129.154 8.89394 129.538 8.64205C129.926 8.39015 130.405 8.2642 130.975 8.2642C131.502 8.2642 131.961 8.37689 132.352 8.60227C132.747 8.82765 133.052 9.15412 133.267 9.58168C133.486 10.0092 133.593 10.5279 133.59 11.1378V16H131.79V11.4162C131.79 10.9058 131.658 10.5064 131.393 10.218C131.131 9.92969 130.768 9.78551 130.304 9.78551C129.989 9.78551 129.709 9.85511 129.464 9.99432C129.222 10.1302 129.031 10.3274 128.892 10.5859C128.756 10.8445 128.688 11.1577 128.688 11.5256ZM139.133 8.36364V9.75568H134.743V8.36364H139.133ZM135.827 6.53409H137.626V13.7031C137.626 13.9451 137.663 14.1307 137.736 14.2599C137.812 14.3859 137.911 14.4721 138.034 14.5185C138.157 14.5649 138.293 14.5881 138.442 14.5881C138.554 14.5881 138.657 14.5798 138.75 14.5632C138.846 14.5466 138.919 14.5317 138.969 14.5185L139.272 15.9254C139.176 15.9586 139.038 15.995 138.859 16.0348C138.684 16.0746 138.468 16.0978 138.213 16.1044C137.762 16.1177 137.356 16.0497 136.995 15.9006C136.634 15.7481 136.347 15.5128 136.135 15.1946C135.926 14.8764 135.823 14.4787 135.827 14.0014V6.53409ZM146.464 10.3821L144.824 10.5611C144.777 10.3954 144.696 10.2396 144.58 10.0938C144.467 9.94792 144.315 9.83026 144.123 9.74077C143.93 9.65128 143.695 9.60653 143.417 9.60653C143.042 9.60653 142.727 9.68774 142.472 9.85014C142.22 10.0125 142.096 10.223 142.099 10.4815C142.096 10.7036 142.177 10.8842 142.343 11.0234C142.512 11.1626 142.79 11.277 143.178 11.3665L144.48 11.6449C145.203 11.8007 145.74 12.0476 146.091 12.3857C146.446 12.7237 146.625 13.1662 146.628 13.7131C146.625 14.1937 146.484 14.6179 146.206 14.9858C145.931 15.3504 145.548 15.6354 145.057 15.8409C144.567 16.0464 144.003 16.1491 143.367 16.1491C142.432 16.1491 141.68 15.9536 141.11 15.5625C140.54 15.1681 140.2 14.6196 140.091 13.9169L141.846 13.7479C141.925 14.0926 142.094 14.3527 142.353 14.5284C142.611 14.7041 142.948 14.7919 143.362 14.7919C143.789 14.7919 144.132 14.7041 144.391 14.5284C144.653 14.3527 144.784 14.1357 144.784 13.8771C144.784 13.6584 144.699 13.4777 144.53 13.3352C144.364 13.1927 144.106 13.0833 143.755 13.0071L142.452 12.7337C141.72 12.5812 141.178 12.3243 140.826 11.9631C140.475 11.5985 140.301 11.1378 140.304 10.581C140.301 10.1103 140.429 9.70265 140.687 9.35795C140.949 9.00994 141.312 8.74148 141.776 8.55256C142.243 8.36032 142.782 8.2642 143.392 8.2642C144.287 8.2642 144.991 8.45478 145.505 8.83594C146.022 9.21709 146.342 9.73248 146.464 10.3821Z" fill="#E02020"/>
<path d="M10.5117 11.8262H12.7617L9 8.09961L5.23828 11.8262H7.48828V14.8496H10.5117V11.8262ZM14.5195 9.61133C15.4805 9.68164 16.3008 10.0801 16.9805 10.8066C17.6602 11.5098 18 12.3535 18 13.3379C18 14.3691 17.625 15.2598 16.875 16.0098C16.1484 16.7363 15.2695 17.0996 14.2383 17.0996H4.5C3.25781 17.0996 2.19141 16.666 1.30078 15.7988C0.433594 14.9082 0 13.8418 0 12.5996C0 11.498 0.386719 10.5137 1.16016 9.64648C1.95703 8.75586 2.90625 8.25195 4.00781 8.13477C4.5 7.2207 5.19141 6.48242 6.08203 5.91992C6.97266 5.35742 7.94531 5.07617 9 5.07617C10.2656 5.07617 11.4375 5.52148 12.5156 6.41211C13.6172 7.30273 14.2852 8.36914 14.5195 9.61133Z" fill="#E02020"/>
</svg>
